<svg id="visual" viewBox="0 0 900 600" width="900" height="600" xmlns="http://www.w3.org/2000/svg" xmlns:xlink="http://www.w3.org/1999/xlink" version="1.1"><rect x="0" y="0" width="900" height="600" fill="#001122"></rect><path d="M763 600L760.2 585.7C757.3 571.3 751.7 542.7 735 514.2C718.3 485.7 690.7 457.3 677.7 428.8C664.7 400.3 666.3 371.7 671.2 343C676 314.3 684 285.7 675 257C666 228.3 640 199.7 649 171.2C658 142.7 702 114.3 708.8 85.8C715.7 57.3 685.3 28.7 670.2 14.3L655 0L900 0L900 14.3C900 28.7 900 57.3 900 85.8C900 114.3 900 142.7 900 171.2C900 199.7 900 228.3 900 257C900 285.7 900 314.3 900 343C900 371.7 900 400.3 900 428.8C900 457.3 900 485.7 900 514.2C900 542.7 900 571.3 900 585.7L900 600Z" fill="#F7770F" stroke-linecap="round" stroke-linejoin="miter"></path></svg>